<?xml version="1.0" encoding="iso-8859-1"?>
<!-- Generator: Adobe Illustrator 19.0.0, SVG Export Plug-In . SVG Version: 6.00 Build 0)  -->
<svg version="1.1" id="Layer_1" xmlns="http://www.w3.org/2000/svg" xmlns:xlink="http://www.w3.org/1999/xlink" x="0px" y="0px"
	 viewBox="0 0 512.001 512.001" style="enable-background:new 0 0 512.001 512.001;" xml:space="preserve">
<path style="fill:#CAD1D8;" d="M24,16h464c13.254,0,24,10.745,24,24v432c0,13.254-10.745,24-24,24H24C10.745,496,0,485.255,0,472V40
	C0,26.745,10.745,16,24,16z"/>
<g>
	<circle style="fill:#9BA7AF;" cx="24.002" cy="47.995" r="7.998"/>
	<circle style="fill:#9BA7AF;" cx="56.002" cy="47.995" r="7.998"/>
	<circle style="fill:#9BA7AF;" cx="88.002" cy="47.995" r="7.998"/>
</g>
<path style="fill:#FFFFFF;" d="M24,80h464c4.418,0,8,3.582,8,8v384c0,4.418-3.582,8-8,8H24c-4.418,0-8-3.582-8-8V88
	C16,83.582,19.582,80,24,80z"/>
<g>
	<path style="fill:#CAD1D8;" d="M288,160h144c4.418,0,8,3.582,8,8.001l0,0c0,4.418-3.582,8-8,8H288c-4.418,0-8-3.582-8-8l0,0
		C280,163.582,283.582,160,288,160z"/>
	<path style="fill:#CAD1D8;" d="M288,192h96c4.418,0,8,3.582,8,8.001l0,0c0,4.418-3.582,8-8,8h-96c-4.418,0-8-3.582-8-8l0,0
		C280,195.582,283.582,192,288,192z"/>
</g>
<path style="fill:#E2E5E7;" d="M120,40h368c4.418,0,8,3.582,8,8l0,0c0,4.418-3.582,8-8,8H120c-4.418,0-8-3.582-8-8l0,0
	C112,43.582,115.582,40,120,40z"/>
<path style="fill:#595A66;" d="M96,128h112c13.254,0,24.001,10.745,24.001,24.001v256c0,13.254-10.745,24-24.001,24H96
	c-13.254,0-24.001-10.745-24.001-24V152C72,138.745,82.746,128,96,128z"/>
<rect x="88.002" y="175.995" style="fill:#ABE1FA;" width="128" height="207.995"/>
<g>
	<path style="fill:#6F707E;" d="M176,152.001L176,152.001c0,4.418-3.582,8-8.001,8h-32c-4.418,0-8-3.582-8-8l0,0
		c0-4.418,3.582-8.001,8-8.001h32C172.418,144,176,147.582,176,152.001z"/>
	<circle style="fill:#6F707E;" cx="152.002" cy="408.002" r="15.995"/>
</g>
<g>
	<circle style="fill:#FFFFFF;" cx="152.002" cy="263.998" r="24.002"/>
	<path style="fill:#FFFFFF;" d="M88,384h104l-50-57.12c-2.897-3.336-7.95-3.691-11.286-0.794c-0.283,0.246-0.549,0.511-0.794,0.794
		L88.001,368C88.001,368,88.001,384,88,384z"/>
	<path style="fill:#FFFFFF;" d="M216.001,328l-18.32-18.32c-3.121-3.102-8.159-3.102-11.28,0L112,384h104.001V328z"/>
</g>
<path style="fill:#E2E5E7;" d="M185.68,358.48c-4.819-5.448-12.708-6.961-19.2-3.68L192,384h16L185.68,358.48z"/>
<circle style="fill:#3CB54A;" cx="288" cy="135.998" r="7.998"/>
<g>
	<path style="fill:#CAD1D8;" d="M288,272h144c4.418,0,8,3.582,8,8l0,0c0,4.418-3.582,8-8,8H288c-4.418,0-8-3.582-8-8l0,0
		C280,275.582,283.582,272,288,272z"/>
	<path style="fill:#CAD1D8;" d="M288,304h96c4.418,0,8,3.582,8,8l0,0c0,4.418-3.582,8-8,8h-96c-4.418,0-8-3.582-8-8l0,0
		C280,307.582,283.582,304,288,304z"/>
</g>
<circle style="fill:#3CB54A;" cx="288" cy="248.002" r="7.998"/>
<g>
	<path style="fill:#CAD1D8;" d="M288,384h144c4.418,0,8,3.582,8,8l0,0c0,4.418-3.582,8-8,8H288c-4.418,0-8-3.582-8-8l0,0
		C280,387.582,283.582,384,288,384z"/>
	<path style="fill:#CAD1D8;" d="M288,416h96c4.418,0,8,3.582,8,8l0,0c0,4.418-3.582,8-8,8h-96c-4.418,0-8-3.582-8-8l0,0
		C280,419.582,283.582,416,288,416z"/>
</g>
<circle style="fill:#3CB54A;" cx="288" cy="359.998" r="7.998"/>
<g>
	<path style="fill:#595A66;" d="M320,128h32c4.418,0,8,3.582,8,8.001l0,0c0,4.418-3.582,8-8,8h-32c-4.418,0-8-3.582-8-8l0,0
		C312,131.582,315.582,128,320,128z"/>
	<path style="fill:#595A66;" d="M360,248.001L360,248.001c0,4.418-3.582,8.001-8,8.001h-32c-4.418,0-8-3.582-8-8.001l0,0
		c0-4.418,3.582-8.001,8-8.001h32C356.418,240,360,243.582,360,248.001z"/>
	<path style="fill:#595A66;" d="M360,360L360,360c0,4.418-3.582,8-8,8h-32c-4.418,0-8-3.582-8-8l0,0c0-4.418,3.582-8,8-8h32
		C356.418,352,360,355.582,360,360z"/>
</g>
<g>
</g>
<g>
</g>
<g>
</g>
<g>
</g>
<g>
</g>
<g>
</g>
<g>
</g>
<g>
</g>
<g>
</g>
<g>
</g>
<g>
</g>
<g>
</g>
<g>
</g>
<g>
</g>
<g>
</g>
</svg>
